<?xml version="1.0" encoding="UTF-8"?>
<svg width="169px" height="141px" viewBox="0 0 169 141" version="1.1" xmlns="http://www.w3.org/2000/svg" xmlns:xlink="http://www.w3.org/1999/xlink">
    <!-- Generator: Sketch 52 (66869) - http://www.bohemiancoding.com/sketch -->
    <title>diantai</title>
    <desc>Created with Sketch.</desc>
    <g id="直流-优化" stroke="none" stroke-width="1" fill="none" fill-rule="evenodd">
        <g id="diantai">
            <path d="M129.882812,6.86197917 L129.882812,73.1705729 C129.882812,73.7760417 129.394531,74.2838542 128.769531,74.2838542 L124.335937,74.2838542 C123.730469,74.2838542 123.222656,73.7955729 123.222656,73.1705729 L123.222656,6.86197917 C123.222656,6.25651042 123.710937,5.74869792 124.335937,5.74869792 L128.769531,5.74869792 C129.394531,5.74869792 129.882812,6.25651042 129.882812,6.86197917 Z" id="路径" fill="#353334"></path>
            <path d="M120.3125,6.31510417 C120.3125,9.77767067 123.119465,12.5846354 126.582031,12.5846354 C130.044598,12.5846354 132.851562,9.77767067 132.851562,6.31510417 C132.851562,2.85253767 130.044598,0.045572918 126.582031,0.045572918 C123.119465,0.045572918 120.3125,2.85253767 120.3125,6.31510417 Z" id="路径" fill="#353334"></path>
            <path d="M45.8984375,6.86197917 L45.8984375,73.1705729 C45.8984375,73.7760417 45.4101562,74.2838542 44.7851562,74.2838542 L40.3515625,74.2838542 C39.7460937,74.2838542 39.2382812,73.7955729 39.2382812,73.1705729 L39.2382812,6.86197917 C39.2382812,6.25651042 39.7265625,5.74869792 40.3515625,5.74869792 L44.7851562,5.74869792 C45.4101562,5.74869792 45.8984375,6.25651042 45.8984375,6.86197917 Z" id="路径" fill="#353334"></path>
            <path d="M36.3085938,6.31510417 C36.3085938,9.77767067 39.1155585,12.5846354 42.578125,12.5846354 C46.0406915,12.5846354 48.8476562,9.77767067 48.8476562,6.31510417 C48.8476563,4.07521634 47.6526904,2.00547461 45.7128907,0.88553068 C43.7730909,-0.234413252 41.3831591,-0.234413252 39.4433593,0.88553068 C37.5035596,2.00547461 36.3085937,4.07521634 36.3085938,6.31510417 Z" id="路径" fill="#353334"></path>
            <path d="M157.539062,24.2838542 L10.703125,24.2838542 C7.71484375,24.2838542 5.29296875,26.7057292 5.29296875,29.6940104 L5.29296875,129.713542 C5.29296875,132.701823 7.71484375,135.123698 10.703125,135.123698 L157.539062,135.123698 C160.527344,135.123698 162.949219,132.701823 162.949219,129.713542 L162.949219,29.6744792 C162.929688,26.7057292 160.507812,24.2838542 157.539062,24.2838542 Z" id="路径" fill="#DE9F9C"></path>
            <path d="M159.296875,26.6276042 L12.4609375,26.6276042 C9.47265625,26.6276042 7.05078125,29.0494792 7.05078125,32.0377604 L7.05078125,132.057292 C7.05078125,135.045573 9.47265625,137.467448 12.4609375,137.467448 L159.296875,137.467448 C162.285156,137.467448 164.707031,135.045573 164.707031,132.057292 L164.707031,32.0182292 C164.707031,29.0494792 162.285156,26.6276042 159.296875,26.6276042 Z" id="路径" fill="#E46160"></path>
            <path d="M143.457031,47.4283854 L100.292969,47.4283854 C98.4765625,47.4283854 96.9726562,45.9440104 96.9726562,44.1080729 C96.9726562,42.2916667 98.4570312,40.7877604 100.292969,40.7877604 L143.4375,40.7877604 C145.253906,40.7877604 146.757812,42.2721354 146.757812,44.1080729 C146.777344,45.9440104 145.273438,47.4283854 143.457031,47.4283854 Z M49.3945312,58.4830729 L21.7773438,58.4830729 C19.9609375,58.4830729 18.4570312,56.9986979 18.4570312,55.1627604 C18.4570312,53.3463542 19.9414062,51.8424479 21.7773438,51.8424479 L49.3945312,51.8424479 C51.2109375,51.8424479 52.7148437,53.3268229 52.7148437,55.1627604 C52.7148437,56.9791667 51.2304687,58.4830729 49.3945312,58.4830729 Z M123.769531,69.5182292 L21.7773438,69.5182292 C19.9609375,69.5182292 18.4570312,68.0338542 18.4570312,66.1979167 C18.4570312,64.3815104 19.9414062,62.8776042 21.7773438,62.8776042 L123.769531,62.8776042 C125.585938,62.8776042 127.089844,64.3619792 127.089844,66.1979167 C127.089844,68.0338542 125.605469,69.5182292 123.769531,69.5182292 Z M143.457031,80.5533854 L21.7773438,80.5533854 C19.9609375,80.5533854 18.4570312,79.0690104 18.4570312,77.2330729 C18.4570312,75.4166667 19.9414062,73.9127604 21.7773438,73.9127604 L143.457031,73.9127604 C145.273438,73.9127604 146.777344,75.3971354 146.777344,77.2330729 C146.777344,79.0690104 145.273438,80.5533854 143.457031,80.5533854 Z M143.457031,91.6080729 L21.7773438,91.6080729 C19.9609375,91.6080729 18.4570312,90.1236979 18.4570312,88.2877604 C18.4570312,86.4713542 19.9414062,84.9674479 21.7773438,84.9674479 L143.457031,84.9674479 C145.273438,84.9674479 146.777344,86.4518229 146.777344,88.2877604 C146.777344,90.1041667 145.273438,91.6080729 143.457031,91.6080729 Z M83.6523438,47.4283854 L21.7773438,47.4283854 C19.9609375,47.4283854 18.4570312,45.9440104 18.4570312,44.1080729 C18.4570312,42.2916667 19.9414062,40.7877604 21.7773438,40.7877604 L83.6523438,40.7877604 C85.46875,40.7877604 86.9726562,42.2721354 86.9726562,44.1080729 C86.9726562,45.9440104 85.46875,47.4283854 83.6523438,47.4283854 Z M143.457031,58.4830729 L67.578125,58.4830729 C65.7617188,58.4830729 64.2578125,56.9986979 64.2578125,55.1627604 C64.2578125,53.3463542 65.7421875,51.8424479 67.578125,51.8424479 L143.4375,51.8424479 C145.253906,51.8424479 146.757812,53.3268229 146.757812,55.1627604 C146.777344,56.9791667 145.273438,58.4830729 143.457031,58.4830729 Z" id="形状" fill="#353334" fill-rule="nonzero"></path>
            <path d="M122.480469,112.623698 C122.480469,117.452366 125.056532,121.914239 129.238281,124.328573 C133.42003,126.742907 138.572157,126.742907 142.753906,124.328573 C146.935655,121.914239 149.511719,117.452366 149.511719,112.623698 C149.511719,107.79503 146.935655,103.333157 142.753906,100.918823 C138.572157,98.5044888 133.42003,98.5044888 129.238281,100.918823 C125.056532,103.333157 122.480469,107.79503 122.480469,112.623698 Z" id="路径" fill="#E02D26"></path>
            <path d="M143.457031,69.5182292 L140.996094,69.5182292 C139.179688,69.5182292 137.675781,68.0338542 137.675781,66.1979167 C137.675781,64.3815104 139.160156,62.8776042 140.996094,62.8776042 L143.457031,62.8776042 C145.273438,62.8776042 146.777344,64.3619792 146.777344,66.1979167 C146.777344,68.0338542 145.273438,69.5182292 143.457031,69.5182292 Z" id="路径" fill="#353334"></path>
            <path d="M121.875,111.451823 C121.875,118.592692 127.663818,124.38151 134.804688,124.38151 C141.945557,124.38151 147.734375,118.592692 147.734375,111.451823 C147.734375,104.310954 141.945557,98.5221354 134.804688,98.5221354 C127.663818,98.5221354 121.875,104.310954 121.875,111.451823 Z" id="路径" fill="#EFF0F0"></path>
            <path d="M31.9140625,109.986979 L36.9140625,109.986979 C38.1054687,110.045573 38.7695312,110.748698 38.90625,112.057292 C38.7890625,113.385417 38.125,114.06901 36.9140625,114.127604 L31.9140625,114.127604 L31.9140625,117.643229 C31.8554687,119.401042 30.8984375,120.31901 29.0820312,120.377604 C27.2460937,120.31901 26.3476562,119.401042 26.3476562,117.643229 L26.3476562,106.217448 C26.2890625,104.010417 27.3632812,102.916667 29.5507812,102.916667 L37.5,102.916667 C39.1992187,102.97526 40.078125,103.697917 40.1367187,105.084635 C40.078125,106.529948 39.1992187,107.252604 37.5,107.252604 L31.9335937,107.252604 L31.9335937,109.986979 L31.9140625,109.986979 Z M51.8554688,113.483073 L54.1210938,104.889323 C54.4335938,103.248698 55.4492188,102.467448 57.1484375,102.526042 L58.6523438,102.526042 C60.546875,102.584635 61.5234375,103.60026 61.5820312,105.553385 L61.5820312,118.111979 C61.5820312,119.615885 60.7617188,120.377604 59.1210938,120.377604 C57.421875,120.31901 56.5625,119.557292 56.5625,118.111979 L56.5625,109.615885 L54.0039062,119.06901 C53.8085937,120.00651 53.0859375,120.455729 51.8359375,120.397135 C50.5078125,120.455729 49.7851562,120.026042 49.6679687,119.06901 L47.109375,109.615885 L47.0117187,109.615885 L47.0117187,118.111979 C47.0117187,119.615885 46.1914062,120.377604 44.5507812,120.377604 C42.8515625,120.377604 42.03125,119.615885 42.0898437,118.111979 L42.0898437,105.553385 C42.0898437,103.60026 43.0273437,102.584635 44.921875,102.526042 L46.5234375,102.526042 C48.1054687,102.467448 49.0820312,103.248698 49.453125,104.889323 L51.8554687,113.483073 Z" id="形状" fill="#E02D26" fill-rule="nonzero"></path>
            <path d="M157.539063,18.9908854 L10.703125,18.9908854 C4.8046875,18.9908854 0.01953125,23.7760417 0.01953125,29.6744792 L0.01953125,129.69401 C0.01953125,135.592448 4.8046875,140.377604 10.703125,140.377604 L157.539062,140.377604 C163.4375,140.377604 168.222656,135.592448 168.222656,129.69401 L168.222656,29.6744792 C168.222656,23.7760417 163.4375,18.9908854 157.539063,18.9908854 Z M162.929688,129.713542 C162.929688,132.701823 160.507813,135.123698 157.519531,135.123698 L10.703125,135.123698 C7.71484375,135.123698 5.29296875,132.701823 5.29296875,129.713542 L5.29296875,29.6744792 C5.29296875,26.6861979 7.71484375,24.2643229 10.703125,24.2643229 L157.539062,24.2643229 C160.527344,24.2643229 162.949219,26.6861979 162.949219,29.6744792 L162.949219,129.713542 L162.929688,129.713542 Z" id="形状" fill="#1A1A1A" fill-rule="nonzero"></path>
            <path d="M30.7421875,108.815104 L35.7421875,108.815104 C36.9335937,108.873698 37.5976562,109.576823 37.734375,110.885417 C37.6171875,112.213542 36.953125,112.897135 35.7421875,112.955729 L30.7421875,112.955729 L30.7421875,116.471354 C30.6835937,118.229167 29.7265625,119.147135 27.9101562,119.205729 C26.0742187,119.147135 25.1757812,118.229167 25.1757812,116.471354 L25.1757812,105.045573 C25.1171875,102.838542 26.1914062,101.744792 28.3789062,101.744792 L36.3085937,101.744792 C38.0078125,101.803385 38.8867187,102.526042 38.9453125,103.91276 C38.8867187,105.358073 38.0078125,106.080729 36.3085937,106.080729 L30.7421875,106.080729 L30.7421875,108.815104 Z M50.6835938,112.311198 L52.9492188,103.717448 C53.2617188,102.076823 54.2773438,101.295573 55.9765625,101.354167 L57.4804688,101.354167 C59.375,101.41276 60.3515625,102.428385 60.4101562,104.38151 L60.4101562,116.940104 C60.4101562,118.44401 59.5898438,119.205729 57.9492188,119.205729 C56.25,119.147135 55.390625,118.385417 55.390625,116.940104 L55.390625,108.44401 L52.8320312,117.897135 C52.6367187,118.834635 51.9140625,119.283854 50.6640625,119.22526 C49.3359375,119.283854 48.6132812,118.854167 48.4960937,117.897135 L45.9375,108.44401 L45.8398437,108.44401 L45.8398437,116.940104 C45.8398437,118.44401 45.0195312,119.205729 43.3789062,119.205729 C41.6796875,119.205729 40.859375,118.44401 40.9179687,116.940104 L40.9179687,104.361979 C40.9179687,102.408854 41.8554687,101.393229 43.75,101.334635 L45.3515625,101.334635 C46.9335937,101.276042 47.9101562,102.057292 48.28125,103.697917 L50.6835937,112.311198 Z" id="形状" fill="#EFF0F0" fill-rule="nonzero"></path>
        </g>
    </g>
</svg>